<svg fill="#FAFAFA" xmlns="http://www.w3.org/2000/svg" data-name="Layer 1" viewBox="0 0 100 100" x="0px" y="0px"><title>education jadi</title><path d="M50,50.45a2.6,2.6,0,1,0-2.6-2.6A2.61,2.61,0,0,0,50,50.45ZM50,46a1.8,1.8,0,1,1-1.8,1.8A1.8,1.8,0,0,1,50,46Z"></path><path d="M35.4,62H64.6a.4.4,0,0,0,.4-.4V46.43a.4.4,0,0,0-.4-.4H56.87V43.47a.39.39,0,0,0,0-.11v0a.4.4,0,0,0-.07-.1v0h0l-6.34-6V35.91L54,34.4a.4.4,0,0,0,0-.74l-3.82-1.61a.4.4,0,0,0-.31,0l0,0-.1.06a.4.4,0,0,0-.09.13h0a.4.4,0,0,0,0,.16v3.22h0v1.51l-6.34,6h0v0a.4.4,0,0,0-.07.1v0a.39.39,0,0,0,0,.11V46H35.4a.4.4,0,0,0-.4.4V61.59A.4.4,0,0,0,35.4,62Zm.4-3.62h.82v2.82H35.8Zm2.45,0v2.82h-.82V58.37Zm1.63,0v2.82h-.82V58.37Zm1.63,0v2.82h-.82V58.37Zm1.63,0v2.82H42.3V58.37Zm.81-11.93V43.9H56.06V57.56H54.85a.4.4,0,0,0-.4.4v3.22h-.72V57.83a3.3,3.3,0,0,0-3.3-3.3h-.85a3.3,3.3,0,0,0-3.3,3.3v3.35h-.72V58a.4.4,0,0,0-.4-.4H43.94ZM59.32,58.37v2.82H58.5V58.37Zm1.63,0v2.82h-.82V58.37Zm1.63,0v2.82h-.82V58.37Zm1.63,0v2.82h-.82V58.37Zm-6.5,2.82h-.82V58.37h.82ZM43.94,58.37h.81v2.82h-.81Zm3.14-.53a2.5,2.5,0,0,1,2.5-2.5h0v5.85H47.08Zm3.32,3.35V55.34h0a2.5,2.5,0,0,1,2.5,2.5v3.35Zm4.85-2.82h.81v2.82h-.81ZM64.2,46.83V57.56H56.87V46.83ZM50.4,35V33l2.39,1ZM50,37.88l5.46,5.21H44.54Zm-6.87,8.95V57.56H35.8V46.83Z"></path><path d="M37,50.45h1.89a.4.4,0,0,0,.4-.4V48.16a.4.4,0,0,0-.4-.4H37a.4.4,0,0,0-.4.4v1.89A.4.4,0,0,0,37,50.45Zm.4-1.89h1.09v1.09H37.44Z"></path><path d="M40,50.45h1.89a.4.4,0,0,0,.4-.4V48.16a.4.4,0,0,0-.4-.4H40a.4.4,0,0,0-.4.4v1.89A.4.4,0,0,0,40,50.45Zm.4-1.89h1.09v1.09H40.4Z"></path><path d="M37,53.52h1.89a.4.4,0,0,0,.4-.4V51.22a.4.4,0,0,0-.4-.4H37a.4.4,0,0,0-.4.4v1.89A.4.4,0,0,0,37,53.52Zm.4-1.89h1.09v1.09H37.44Z"></path><path d="M40,53.52h1.89a.4.4,0,0,0,.4-.4V51.22a.4.4,0,0,0-.4-.4H40a.4.4,0,0,0-.4.4v1.89A.4.4,0,0,0,40,53.52Zm.4-1.89h1.09v1.09H40.4Z"></path><path d="M37,56.58h1.89a.4.4,0,0,0,.4-.4V54.29a.4.4,0,0,0-.4-.4H37a.4.4,0,0,0-.4.4v1.89A.4.4,0,0,0,37,56.58Zm.4-1.89h1.09v1.09H37.44Z"></path><path d="M40,56.58h1.89a.4.4,0,0,0,.4-.4V54.29a.4.4,0,0,0-.4-.4H40a.4.4,0,0,0-.4.4v1.89A.4.4,0,0,0,40,56.58Zm.4-1.89h1.09v1.09H40.4Z"></path><path d="M58.11,50.45H60a.4.4,0,0,0,.4-.4V48.16a.4.4,0,0,0-.4-.4H58.11a.4.4,0,0,0-.4.4v1.89A.4.4,0,0,0,58.11,50.45Zm.4-1.89H59.6v1.09H58.51Z"></path><path d="M61.06,50.45H63a.4.4,0,0,0,.4-.4V48.16a.4.4,0,0,0-.4-.4H61.06a.4.4,0,0,0-.4.4v1.89A.4.4,0,0,0,61.06,50.45Zm.4-1.89h1.09v1.09H61.46Z"></path><path d="M58.11,53.52H60a.4.4,0,0,0,.4-.4V51.22a.4.4,0,0,0-.4-.4H58.11a.4.4,0,0,0-.4.4v1.89A.4.4,0,0,0,58.11,53.52Zm.4-1.89H59.6v1.09H58.51Z"></path><path d="M61.06,53.52H63a.4.4,0,0,0,.4-.4V51.22a.4.4,0,0,0-.4-.4H61.06a.4.4,0,0,0-.4.4v1.89A.4.4,0,0,0,61.06,53.52Zm.4-1.89h1.09v1.09H61.46Z"></path><path d="M58.11,56.58H60a.4.4,0,0,0,.4-.4V54.29a.4.4,0,0,0-.4-.4H58.11a.4.4,0,0,0-.4.4v1.89A.4.4,0,0,0,58.11,56.58Zm.4-1.89H59.6v1.09H58.51Z"></path><path d="M61.06,56.58H63a.4.4,0,0,0,.4-.4V54.29a.4.4,0,0,0-.4-.4H61.06a.4.4,0,0,0-.4.4v1.89A.4.4,0,0,0,61.06,56.58Zm.4-1.89h1.09v1.09H61.46Z"></path><path d="M55.45,22H44.55a.4.4,0,1,0,0,.8H55.45a.4.4,0,1,0,0-.8Z"></path><path d="M49.75,79.19A2.17,2.17,0,1,0,47.57,77,2.17,2.17,0,0,0,49.75,79.19Zm0-3.54A1.37,1.37,0,1,1,48.38,77,1.37,1.37,0,0,1,49.75,75.65Z"></path><path d="M65.35,18H34.65a4.45,4.45,0,0,0-4.45,4.45v55.1A4.45,4.45,0,0,0,34.65,82h30.7a4.45,4.45,0,0,0,4.45-4.45V22.45A4.45,4.45,0,0,0,65.35,18ZM31,22.45a3.65,3.65,0,0,1,3.65-3.65h30.7A3.65,3.65,0,0,1,69,22.45V26.1H31ZM69,26.9V73.1H31V26.9Zm0,50.65a3.65,3.65,0,0,1-3.65,3.65H34.65A3.65,3.65,0,0,1,31,77.55V73.9H69Z"></path><path d="M35.4,65.67H64.6a.4.4,0,0,0,0-.8H35.4a.4.4,0,0,0,0,.8Z"></path><path d="M64.6,67.24H35.4a.4.4,0,0,0,0,.8H64.6a.4.4,0,0,0,0-.8Z"></path><rect x="49.6" y="55.23" width="0.8" height="1.35"></rect></svg>