<svg fill="#fafafa" viewBox="0 0 100 100" xmlns="http://www.w3.org/2000/svg"><path d="m50 50.45a2.6 2.6 0 1 0 -2.6-2.6 2.61 2.61 0 0 0 2.6 2.6zm0-4.45a1.8 1.8 0 1 1 -1.8 1.8 1.8 1.8 0 0 1 1.8-1.8z"/><path d="m35.4 62h29.2a.4.4 0 0 0 .4-.4v-15.17a.4.4 0 0 0 -.4-.4h-7.73v-2.56a.39.39 0 0 0 0-.11.4.4 0 0 0 -.07-.1l-6.34-6v-1.35l3.54-1.51a.4.4 0 0 0 0-.74l-3.82-1.61a.4.4 0 0 0 -.31 0l-.1.06a.4.4 0 0 0 -.09.13.4.4 0 0 0 0 .16v3.22 1.51l-6.34 6a.4.4 0 0 0 -.07.1.39.39 0 0 0 0 .11v2.66h-7.87a.4.4 0 0 0 -.4.4v15.19a.4.4 0 0 0 .4.41zm.4-3.62h.82v2.82h-.82zm2.45 0v2.82h-.82v-2.83zm1.63 0v2.82h-.82v-2.83zm1.63 0v2.82h-.82v-2.83zm1.63 0v2.82h-.84v-2.83zm.81-11.93v-2.55h12.11v13.66h-1.21a.4.4 0 0 0 -.4.4v3.22h-.72v-3.35a3.3 3.3 0 0 0 -3.3-3.3h-.85a3.3 3.3 0 0 0 -3.3 3.3v3.35h-.72v-3.18a.4.4 0 0 0 -.4-.4h-1.22zm15.37 11.92v2.82h-.82v-2.82zm1.63 0v2.82h-.82v-2.82zm1.63 0v2.82h-.82v-2.82zm1.63 0v2.82h-.82v-2.82zm-6.5 2.82h-.82v-2.82h.82zm-13.77-2.82h.81v2.82h-.81zm3.14-.53a2.5 2.5 0 0 1 2.5-2.5v5.85h-2.5zm3.32 3.35v-5.85a2.5 2.5 0 0 1 2.5 2.5v3.35zm4.85-2.82h.81v2.82h-.81zm8.95-11.54v10.73h-7.33v-10.73zm-13.8-11.83v-2l2.39 1zm-.4 2.88 5.46 5.21h-10.92zm-6.87 8.95v10.73h-7.33v-10.73z"/><path d="m37 50.45h1.89a.4.4 0 0 0 .4-.4v-1.89a.4.4 0 0 0 -.4-.4h-1.89a.4.4 0 0 0 -.4.4v1.89a.4.4 0 0 0 .4.4zm.4-1.89h1.09v1.09h-1.05z"/><path d="m40 50.45h1.89a.4.4 0 0 0 .4-.4v-1.89a.4.4 0 0 0 -.4-.4h-1.89a.4.4 0 0 0 -.4.4v1.89a.4.4 0 0 0 .4.4zm.4-1.89h1.09v1.09h-1.09z"/><path d="m37 53.52h1.89a.4.4 0 0 0 .4-.4v-1.9a.4.4 0 0 0 -.4-.4h-1.89a.4.4 0 0 0 -.4.4v1.89a.4.4 0 0 0 .4.41zm.4-1.89h1.09v1.09h-1.05z"/><path d="m40 53.52h1.89a.4.4 0 0 0 .4-.4v-1.9a.4.4 0 0 0 -.4-.4h-1.89a.4.4 0 0 0 -.4.4v1.89a.4.4 0 0 0 .4.41zm.4-1.89h1.09v1.09h-1.09z"/><path d="m37 56.58h1.89a.4.4 0 0 0 .4-.4v-1.89a.4.4 0 0 0 -.4-.4h-1.89a.4.4 0 0 0 -.4.4v1.89a.4.4 0 0 0 .4.4zm.4-1.89h1.09v1.09h-1.05z"/><path d="m40 56.58h1.89a.4.4 0 0 0 .4-.4v-1.89a.4.4 0 0 0 -.4-.4h-1.89a.4.4 0 0 0 -.4.4v1.89a.4.4 0 0 0 .4.4zm.4-1.89h1.09v1.09h-1.09z"/><path d="m58.11 50.45h1.89a.4.4 0 0 0 .4-.4v-1.89a.4.4 0 0 0 -.4-.4h-1.89a.4.4 0 0 0 -.4.4v1.89a.4.4 0 0 0 .4.4zm.4-1.89h1.09v1.09h-1.09z"/><path d="m61.06 50.45h1.94a.4.4 0 0 0 .4-.4v-1.89a.4.4 0 0 0 -.4-.4h-1.94a.4.4 0 0 0 -.4.4v1.89a.4.4 0 0 0 .4.4zm.4-1.89h1.09v1.09h-1.09z"/><path d="m58.11 53.52h1.89a.4.4 0 0 0 .4-.4v-1.9a.4.4 0 0 0 -.4-.4h-1.89a.4.4 0 0 0 -.4.4v1.89a.4.4 0 0 0 .4.41zm.4-1.89h1.09v1.09h-1.09z"/><path d="m61.06 53.52h1.94a.4.4 0 0 0 .4-.4v-1.9a.4.4 0 0 0 -.4-.4h-1.94a.4.4 0 0 0 -.4.4v1.89a.4.4 0 0 0 .4.41zm.4-1.89h1.09v1.09h-1.09z"/><path d="m58.11 56.58h1.89a.4.4 0 0 0 .4-.4v-1.89a.4.4 0 0 0 -.4-.4h-1.89a.4.4 0 0 0 -.4.4v1.89a.4.4 0 0 0 .4.4zm.4-1.89h1.09v1.09h-1.09z"/><path d="m61.06 56.58h1.94a.4.4 0 0 0 .4-.4v-1.89a.4.4 0 0 0 -.4-.4h-1.94a.4.4 0 0 0 -.4.4v1.89a.4.4 0 0 0 .4.4zm.4-1.89h1.09v1.09h-1.09z"/><path d="m55.45 22h-10.9a.4.4 0 1 0 0 .8h10.9a.4.4 0 1 0 0-.8z"/><path d="m49.75 79.19a2.17 2.17 0 1 0 -2.18-2.19 2.17 2.17 0 0 0 2.18 2.19zm0-3.54a1.37 1.37 0 1 1 -1.37 1.35 1.37 1.37 0 0 1 1.37-1.35z"/><path d="m65.35 18h-30.7a4.45 4.45 0 0 0 -4.45 4.45v55.1a4.45 4.45 0 0 0 4.45 4.45h30.7a4.45 4.45 0 0 0 4.45-4.45v-55.1a4.45 4.45 0 0 0 -4.45-4.45zm-34.35 4.45a3.65 3.65 0 0 1 3.65-3.65h30.7a3.65 3.65 0 0 1 3.65 3.65v3.65h-38zm38 4.45v46.2h-38v-46.2zm0 50.65a3.65 3.65 0 0 1 -3.65 3.65h-30.7a3.65 3.65 0 0 1 -3.65-3.65v-3.65h38z"/><path d="m35.4 65.67h29.2a.4.4 0 0 0 0-.8h-29.2a.4.4 0 0 0 0 .8z"/><path d="m64.6 67.24h-29.2a.4.4 0 0 0 0 .8h29.2a.4.4 0 0 0 0-.8z"/><path d="m49.6 55.23h.8v1.35h-.8z"/></svg>