<svg fill="#fafafa" viewBox="0 0 100 100" xmlns="http://www.w3.org/2000/svg"><path d="m77.89 28.14h-55.78a4.12 4.12 0 0 0 -4.11 4.11v35.5a4.12 4.12 0 0 0 4.11 4.11h55.78a4.12 4.12 0 0 0 4.11-4.11v-35.5a4.12 4.12 0 0 0 -4.11-4.11zm2.65 39.61a2.65 2.65 0 0 1 -2.65 2.65h-55.78a2.65 2.65 0 0 1 -2.65-2.65v-35.5a2.65 2.65 0 0 1 2.65-2.65h55.78a2.65 2.65 0 0 1 2.65 2.65z"/><path d="m74.88 31.8h-49.76a.73.73 0 0 0 -.73.73v34.93a.73.73 0 0 0 .73.73h49.76a.73.73 0 0 0 .73-.73v-34.92a.73.73 0 0 0 -.73-.74zm-.73 34.93h-48.3v-33.46h48.3z"/><path d="m40.7 49a4.77 4.77 0 1 0 -4.77-4.77 4.78 4.78 0 0 0 4.77 4.77zm0-8.08a3.3 3.3 0 1 1 -3.3 3.3 3.31 3.31 0 0 1 3.3-3.22z"/><path d="m33.85 64.35h13.43a.73.73 0 0 0 .73-.73v-7.82h.57v1.87a.73.73 0 0 0 .73.73h20.69a.73.73 0 0 0 .73-.73v-17.6a.73.73 0 0 0 -.73-.73h-20.69a.73.73 0 0 0 -.73.73v10.23h-11a4.49 4.49 0 0 0 -4.49 4.49v8.83a.73.73 0 0 0 .76.73zm16.15-23.55h19.27v16.14h-19.27v-1.14h3.9a2.75 2.75 0 1 0 0-5.5h-3.9zm-15.46 14a3 3 0 0 1 3-3h16.36a1.29 1.29 0 1 1 0 2.57h-6.62a.73.73 0 0 0 -.73.73v7.81h-12z"/><path d="m56.71 51.77a.73.73 0 0 0 .73 0l4.9-2.83a.73.73 0 0 0 0-1.27l-4.9-2.83a.73.73 0 0 0 -1.1.63v5.66a.73.73 0 0 0 .37.64zm1.1-5 2.7 1.56-2.7 1.56z"/><path d="m21.83 43.54a.73.73 0 0 0 -.73.73v11.65a.73.73 0 0 0 1.47 0v-11.65a.73.73 0 0 0 -.74-.73z"/><path d="m78.07 48.16a1.84 1.84 0 1 0 1.84 1.84 1.84 1.84 0 0 0 -1.84-1.84zm0 2.21a.37.37 0 1 1 .37-.37.37.37 0 0 1 -.37.37z"/></svg>