<svg fill="#FAFAFA" xmlns="http://www.w3.org/2000/svg" data-name="Layer 1" viewBox="0 0 100 100" x="0px" y="0px"><title>education 2 jadi</title><path d="M77.89,28.14H22.11A4.12,4.12,0,0,0,18,32.25V67.75a4.12,4.12,0,0,0,4.11,4.11H77.89A4.12,4.12,0,0,0,82,67.75V32.25A4.12,4.12,0,0,0,77.89,28.14Zm2.65,39.61a2.65,2.65,0,0,1-2.65,2.65H22.11a2.65,2.65,0,0,1-2.65-2.65V32.25a2.65,2.65,0,0,1,2.65-2.65H77.89a2.65,2.65,0,0,1,2.65,2.65Z"></path><path d="M74.88,31.8H25.12a.73.73,0,0,0-.73.73V67.46a.73.73,0,0,0,.73.73H74.88a.73.73,0,0,0,.73-.73V32.54A.73.73,0,0,0,74.88,31.8Zm-.73,34.93H25.85V33.27h48.3Z"></path><path d="M40.7,49a4.77,4.77,0,1,0-4.77-4.77A4.78,4.78,0,0,0,40.7,49Zm0-8.08a3.3,3.3,0,1,1-3.3,3.3A3.31,3.31,0,0,1,40.7,41Z"></path><path d="M33.85,64.35H47.28a.73.73,0,0,0,.73-.73V55.8h.57v1.87a.73.73,0,0,0,.73.73H70a.73.73,0,0,0,.73-.73V40.07a.73.73,0,0,0-.73-.73H49.31a.73.73,0,0,0-.73.73V50.3h-11a4.49,4.49,0,0,0-4.49,4.49v8.83A.73.73,0,0,0,33.85,64.35ZM50,40.8H69.27V56.94H50V55.8H53.9a2.75,2.75,0,1,0,0-5.5H50Zm-15.46,14a3,3,0,0,1,3-3H53.9a1.29,1.29,0,1,1,0,2.57H47.28a.73.73,0,0,0-.73.73v7.81h-12Z"></path><path d="M56.71,51.77a.73.73,0,0,0,.73,0l4.9-2.83a.73.73,0,0,0,0-1.27l-4.9-2.83a.73.73,0,0,0-1.1.63v5.66A.73.73,0,0,0,56.71,51.77Zm1.1-5,2.7,1.56-2.7,1.56Z"></path><path d="M21.83,43.54a.73.73,0,0,0-.73.73V55.92a.73.73,0,0,0,1.47,0V44.27A.73.73,0,0,0,21.83,43.54Z"></path><path d="M78.07,48.16A1.84,1.84,0,1,0,79.91,50,1.84,1.84,0,0,0,78.07,48.16Zm0,2.21a.37.37,0,1,1,.37-.37A.37.37,0,0,1,78.07,50.37Z"></path></svg>