<svg fill="#FAFAFA" xmlns="http://www.w3.org/2000/svg" data-name="Layer 1" viewBox="0 0 100 100" x="0px" y="0px"><title>education 2 jadi</title><path d="M53.9,57.3H46.1a8,8,0,0,0-7.9,7.4.73.73,0,0,0,.73.78H61.08a.73.73,0,0,0,.73-.78A8,8,0,0,0,53.9,57.3ZM39.75,64a6.5,6.5,0,0,1,6.35-5.26h7.8A6.5,6.5,0,0,1,60.25,64Z"></path><path d="M37.81,40.74,43.49,43a8.69,8.69,0,0,0-1.13,4.26c0,4.59,3.43,8.32,7.64,8.32s7.64-3.73,7.64-8.32A8.69,8.69,0,0,0,56.51,43l4.68-1.89v7a.73.73,0,0,0,1.46,0v-8.1a.72.72,0,0,0-.05-.26l0-.07a.72.72,0,0,0-.1-.15l-.05-.06a.72.72,0,0,0-.18-.12l0,0h0L50.27,34.57a.73.73,0,0,0-.55,0L37.81,39.39a.73.73,0,0,0,0,1.35ZM56.18,47.3c0,3.78-2.77,6.86-6.18,6.86s-6.18-3.08-6.18-6.86a7.27,7.27,0,0,1,1-3.72l4.89,2a.73.73,0,0,0,.55,0l4.89-2A7.27,7.27,0,0,1,56.18,47.3ZM50,36l10,4L55.18,42h0L50,44.09,44.82,42h0L40,40.06Z"></path><path d="M55.4,22H44.6a.73.73,0,1,0,0,1.46H55.4a.73.73,0,0,0,0-1.46Z"></path><path d="M50,79.75a2.48,2.48,0,1,0-2.48-2.48A2.48,2.48,0,0,0,50,79.75Zm0-3.51a1,1,0,1,1-1,1A1,1,0,0,1,50,76.24Z"></path><path d="M65.19,18H34.81a4.74,4.74,0,0,0-4.74,4.74V77.26A4.74,4.74,0,0,0,34.81,82H65.19a4.74,4.74,0,0,0,4.74-4.74V22.74A4.74,4.74,0,0,0,65.19,18ZM31.53,22.74a3.28,3.28,0,0,1,3.28-3.28H65.19a3.28,3.28,0,0,1,3.28,3.28V26H31.53Zm36.93,4.74V72.53H31.53V27.47Zm0,49.79a3.28,3.28,0,0,1-3.28,3.28H34.81a3.28,3.28,0,0,1-3.28-3.28V74H68.47Z"></path></svg>