<svg fill="#fafafa" viewBox="0 0 100 100" xmlns="http://www.w3.org/2000/svg"><path d="m53.9 57.3h-7.8a8 8 0 0 0 -7.9 7.4.73.73 0 0 0 .73.78h22.15a.73.73 0 0 0 .73-.78 8 8 0 0 0 -7.91-7.4zm-14.15 6.7a6.5 6.5 0 0 1 6.35-5.26h7.8a6.5 6.5 0 0 1 6.35 5.26z"/><path d="m37.81 40.74 5.68 2.26a8.69 8.69 0 0 0 -1.13 4.26c0 4.59 3.43 8.32 7.64 8.32s7.64-3.73 7.64-8.32a8.69 8.69 0 0 0 -1.13-4.26l4.68-1.89v7a.73.73 0 0 0 1.46 0v-8.1a.72.72 0 0 0 -.05-.26v-.07a.72.72 0 0 0 -.1-.15l-.05-.06a.72.72 0 0 0 -.18-.12l-12-4.78a.73.73 0 0 0 -.55 0l-11.91 4.82a.73.73 0 0 0 0 1.35zm18.37 6.56c0 3.78-2.77 6.86-6.18 6.86s-6.18-3.08-6.18-6.86a7.27 7.27 0 0 1 1-3.72l4.89 2a.73.73 0 0 0 .55 0l4.89-2a7.27 7.27 0 0 1 1.03 3.72zm-6.18-11.3 10 4-4.82 2-5.18 2.09-5.18-2.09-4.82-1.94z"/><path d="m55.4 22h-10.8a.73.73 0 1 0 0 1.46h10.8a.73.73 0 0 0 0-1.46z"/><path d="m50 79.75a2.48 2.48 0 1 0 -2.48-2.48 2.48 2.48 0 0 0 2.48 2.48zm0-3.51a1 1 0 1 1 -1 1 1 1 0 0 1 1-1z"/><path d="m65.19 18h-30.38a4.74 4.74 0 0 0 -4.74 4.74v54.52a4.74 4.74 0 0 0 4.74 4.74h30.38a4.74 4.74 0 0 0 4.74-4.74v-54.52a4.74 4.74 0 0 0 -4.74-4.74zm-33.66 4.74a3.28 3.28 0 0 1 3.28-3.28h30.38a3.28 3.28 0 0 1 3.28 3.28v3.26h-36.94zm36.93 4.74v45.05h-36.93v-45.06zm0 49.79a3.28 3.28 0 0 1 -3.28 3.28h-30.37a3.28 3.28 0 0 1 -3.28-3.28v-3.27h36.94z"/></svg>